<mxfile host="65bd71144e">
    <diagram id="AHeYNvNv7ygXPSbzfAzc" name="Page-1">
        <mxGraphModel dx="911" dy="1715" grid="1" gridSize="10" guides="1" tooltips="1" connect="1" arrows="1" fold="1" page="1" pageScale="1" pageWidth="827" pageHeight="1169" background="#ffffff" math="0" shadow="0">
            <root>
                <mxCell id="0"/>
                <mxCell id="1" parent="0"/>
                <mxCell id="2" value="Compte" style="swimlane;childLayout=stackLayout;horizontal=1;startSize=20;horizontalStack=0;rounded=0;fontSize=14;fontStyle=0;strokeWidth=2;resizeParent=0;resizeLast=1;shadow=0;dashed=0;align=center;fillColor=#dae8fc;strokeColor=#6c8ebf;swimlaneFillColor=default;gradientColor=none;" parent="1" vertex="1">
                    <mxGeometry x="1205" y="-40" width="110" height="100" as="geometry"/>
                </mxCell>
                <mxCell id="8" value="Id" style="text;strokeColor=none;fillColor=none;spacingLeft=4;spacingRight=4;overflow=hidden;rotatable=0;points=[[0,0.5],[1,0.5]];portConstraint=eastwest;fontSize=12;fontStyle=5;rounded=0;" parent="2" vertex="1">
                    <mxGeometry y="20" width="110" height="20" as="geometry"/>
                </mxCell>
                <mxCell id="3" value="Email&#10;HashMotDePasse&#10;DateCreation" style="align=left;strokeColor=none;fillColor=none;spacingLeft=4;fontSize=12;verticalAlign=top;resizable=0;rotatable=0;part=1;rounded=0;" parent="2" vertex="1">
                    <mxGeometry y="40" width="110" height="60" as="geometry"/>
                </mxCell>
                <mxCell id="9" value="Adresse" style="swimlane;childLayout=stackLayout;horizontal=1;startSize=20;horizontalStack=0;rounded=0;fontSize=14;fontStyle=0;strokeWidth=2;resizeParent=0;resizeLast=1;shadow=0;dashed=0;align=center;fillColor=#dae8fc;strokeColor=#6c8ebf;swimlaneFillColor=default;" parent="1" vertex="1">
                    <mxGeometry x="890" y="-80" width="90" height="140" as="geometry"/>
                </mxCell>
                <mxCell id="10" value="Id" style="text;strokeColor=none;fillColor=none;spacingLeft=4;spacingRight=4;overflow=hidden;rotatable=0;points=[[0,0.5],[1,0.5]];portConstraint=eastwest;fontSize=12;fontStyle=5;rounded=0;" parent="9" vertex="1">
                    <mxGeometry y="20" width="90" height="20" as="geometry"/>
                </mxCell>
                <mxCell id="11" value="Numero&#10;NomRue&#10;Complement&#10;CodePostal&#10;Ville&#10;Pays" style="align=left;strokeColor=none;fillColor=none;spacingLeft=4;fontSize=12;verticalAlign=top;resizable=0;rotatable=0;part=1;rounded=0;" parent="9" vertex="1">
                    <mxGeometry y="40" width="90" height="100" as="geometry"/>
                </mxCell>
                <mxCell id="12" value="Commande" style="swimlane;childLayout=stackLayout;horizontal=1;startSize=20;horizontalStack=0;rounded=0;fontSize=14;fontStyle=0;strokeWidth=2;resizeParent=0;resizeLast=1;shadow=0;dashed=0;align=center;fillColor=#dae8fc;strokeColor=#6c8ebf;swimlaneFillColor=default;" parent="1" vertex="1">
                    <mxGeometry x="510" y="210" width="110" height="110" as="geometry"/>
                </mxCell>
                <mxCell id="13" value="Id" style="text;strokeColor=none;fillColor=none;spacingLeft=4;spacingRight=4;overflow=hidden;rotatable=0;points=[[0,0.5],[1,0.5]];portConstraint=eastwest;fontSize=12;fontStyle=5;rounded=0;" parent="12" vertex="1">
                    <mxGeometry y="20" width="110" height="20" as="geometry"/>
                </mxCell>
                <mxCell id="14" value="DatePaiement&#10;DateLivraison&#10;Valide&#10;Annule" style="align=left;strokeColor=none;fillColor=none;spacingLeft=4;fontSize=12;verticalAlign=top;resizable=0;rotatable=0;part=1;rounded=0;" parent="12" vertex="1">
                    <mxGeometry y="40" width="110" height="70" as="geometry"/>
                </mxCell>
                <mxCell id="15" value="Article" style="swimlane;childLayout=stackLayout;horizontal=1;startSize=20;horizontalStack=0;rounded=0;fontSize=14;fontStyle=0;strokeWidth=2;resizeParent=0;resizeLast=1;shadow=0;dashed=0;align=center;fillColor=#dae8fc;strokeColor=#6c8ebf;swimlaneFillColor=default;" parent="1" vertex="1">
                    <mxGeometry x="1220" y="500" width="90" height="100" as="geometry"/>
                </mxCell>
                <mxCell id="16" value="Id" style="text;strokeColor=none;fillColor=none;spacingLeft=4;spacingRight=4;overflow=hidden;rotatable=0;points=[[0,0.5],[1,0.5]];portConstraint=eastwest;fontSize=12;fontStyle=5;rounded=0;" parent="15" vertex="1">
                    <mxGeometry y="20" width="90" height="20" as="geometry"/>
                </mxCell>
                <mxCell id="17" value="Nom&#10;Description&#10;Prix" style="align=left;strokeColor=none;fillColor=none;spacingLeft=4;fontSize=12;verticalAlign=top;resizable=0;rotatable=0;part=1;rounded=0;" parent="15" vertex="1">
                    <mxGeometry y="40" width="90" height="60" as="geometry"/>
                </mxCell>
                <mxCell id="127" style="edgeStyle=none;html=1;exitX=1;exitY=0;exitDx=0;exitDy=0;entryX=0;entryY=1;entryDx=0;entryDy=0;fontSize=20;rounded=0;" parent="1" source="27" target="125" edge="1">
                    <mxGeometry relative="1" as="geometry"/>
                </mxCell>
                <mxCell id="27" value="Client" style="swimlane;childLayout=stackLayout;horizontal=1;startSize=20;horizontalStack=0;rounded=0;fontSize=14;fontStyle=0;strokeWidth=2;resizeParent=0;resizeLast=1;shadow=0;dashed=0;align=center;fillColor=#dae8fc;strokeColor=#6c8ebf;swimlaneFillColor=default;" parent="1" vertex="1">
                    <mxGeometry x="880" y="220" width="110" height="80" as="geometry"/>
                </mxCell>
                <mxCell id="29" value="Nom&#10;Prénom&#10;DateCreation" style="align=left;strokeColor=none;fillColor=none;spacingLeft=4;fontSize=12;verticalAlign=top;resizable=0;rotatable=0;part=1;rounded=0;" parent="27" vertex="1">
                    <mxGeometry y="20" width="110" height="60" as="geometry"/>
                </mxCell>
                <mxCell id="128" style="edgeStyle=none;html=1;exitX=0.5;exitY=0;exitDx=0;exitDy=0;entryX=0.5;entryY=1;entryDx=0;entryDy=0;fontSize=20;rounded=0;" parent="1" source="30" target="125" edge="1">
                    <mxGeometry relative="1" as="geometry"/>
                </mxCell>
                <mxCell id="30" value="Commerce" style="swimlane;childLayout=stackLayout;horizontal=1;startSize=20;horizontalStack=0;rounded=0;fontSize=14;fontStyle=0;strokeWidth=2;resizeParent=0;resizeLast=1;shadow=0;dashed=0;align=center;fillColor=#dae8fc;strokeColor=#6c8ebf;swimlaneFillColor=default;" parent="1" vertex="1">
                    <mxGeometry x="1210" y="290" width="110" height="70" as="geometry"/>
                </mxCell>
                <mxCell id="32" value="Nom&#10;DateCreation" style="align=left;strokeColor=none;fillColor=none;spacingLeft=4;fontSize=12;verticalAlign=top;resizable=0;rotatable=0;part=1;rounded=0;" parent="30" vertex="1">
                    <mxGeometry y="20" width="110" height="50" as="geometry"/>
                </mxCell>
                <mxCell id="129" style="edgeStyle=none;html=1;exitX=0.5;exitY=0;exitDx=0;exitDy=0;entryX=1;entryY=1;entryDx=0;entryDy=0;fontSize=20;rounded=0;" parent="1" source="33" target="125" edge="1">
                    <mxGeometry relative="1" as="geometry"/>
                </mxCell>
                <mxCell id="33" value="Administrateur" style="swimlane;childLayout=stackLayout;horizontal=1;startSize=20;horizontalStack=0;rounded=0;fontSize=14;fontStyle=0;strokeWidth=2;resizeParent=0;resizeLast=1;shadow=0;dashed=0;align=center;fillColor=#dae8fc;strokeColor=#6c8ebf;swimlaneFillColor=default;" parent="1" vertex="1">
                    <mxGeometry x="1400" y="220" width="120" height="80" as="geometry"/>
                </mxCell>
                <mxCell id="35" value="Nom&#10;Prénom&#10;DateCreation" style="align=left;strokeColor=none;fillColor=none;spacingLeft=4;fontSize=12;verticalAlign=top;resizable=0;rotatable=0;part=1;rounded=0;" parent="33" vertex="1">
                    <mxGeometry y="20" width="120" height="60" as="geometry"/>
                </mxCell>
                <mxCell id="36" value="Avis" style="swimlane;childLayout=stackLayout;horizontal=1;startSize=20;horizontalStack=0;rounded=0;fontSize=14;fontStyle=0;strokeWidth=2;resizeParent=0;resizeLast=1;shadow=0;dashed=0;align=center;fillColor=#dae8fc;strokeColor=#6c8ebf;swimlaneFillColor=default;" parent="1" vertex="1">
                    <mxGeometry x="890" y="505" width="90" height="90" as="geometry"/>
                </mxCell>
                <mxCell id="37" value="Id" style="text;strokeColor=none;fillColor=none;spacingLeft=4;spacingRight=4;overflow=hidden;rotatable=0;points=[[0,0.5],[1,0.5]];portConstraint=eastwest;fontSize=12;fontStyle=5;rounded=0;" parent="36" vertex="1">
                    <mxGeometry y="20" width="90" height="20" as="geometry"/>
                </mxCell>
                <mxCell id="38" value="Note&#10;Commentaire&#10;Date" style="align=left;strokeColor=none;fillColor=none;spacingLeft=4;fontSize=12;verticalAlign=top;resizable=0;rotatable=0;part=1;rounded=0;" parent="36" vertex="1">
                    <mxGeometry y="40" width="90" height="50" as="geometry"/>
                </mxCell>
                <mxCell id="39" value="Transporteur" style="swimlane;childLayout=stackLayout;horizontal=1;startSize=20;horizontalStack=0;rounded=0;fontSize=14;fontStyle=0;strokeWidth=2;resizeParent=0;resizeLast=1;shadow=0;dashed=0;align=center;fillColor=#dae8fc;strokeColor=#6c8ebf;swimlaneFillColor=default;glass=0;swimlaneLine=1;" parent="1" vertex="1">
                    <mxGeometry x="160" y="230" width="110" height="80" as="geometry"/>
                </mxCell>
                <mxCell id="40" value="Id" style="text;strokeColor=none;fillColor=none;spacingLeft=4;spacingRight=4;overflow=hidden;rotatable=0;points=[[0,0.5],[1,0.5]];portConstraint=eastwest;fontSize=12;fontStyle=5;rounded=0;" parent="39" vertex="1">
                    <mxGeometry y="20" width="110" height="20" as="geometry"/>
                </mxCell>
                <mxCell id="41" value="Nom&#10;Prix" style="align=left;strokeColor=none;fillColor=none;spacingLeft=4;fontSize=12;verticalAlign=top;resizable=0;rotatable=0;part=1;rounded=0;" parent="39" vertex="1">
                    <mxGeometry y="40" width="110" height="40" as="geometry"/>
                </mxCell>
                <mxCell id="42" value="Visualisation" style="swimlane;childLayout=stackLayout;horizontal=1;startSize=20;horizontalStack=0;rounded=0;fontSize=14;fontStyle=0;strokeWidth=2;resizeParent=0;resizeLast=1;shadow=0;dashed=0;align=center;fillColor=#dae8fc;strokeColor=#6c8ebf;swimlaneFillColor=default;" parent="1" vertex="1">
                    <mxGeometry x="1414" y="630" width="110" height="80" as="geometry"/>
                </mxCell>
                <mxCell id="43" value="Id" style="text;strokeColor=none;fillColor=none;spacingLeft=4;spacingRight=4;overflow=hidden;rotatable=0;points=[[0,0.5],[1,0.5]];portConstraint=eastwest;fontSize=12;fontStyle=5;rounded=0;" parent="42" vertex="1">
                    <mxGeometry y="20" width="110" height="20" as="geometry"/>
                </mxCell>
                <mxCell id="44" value="Chemin&#10;Legende" style="align=left;strokeColor=none;fillColor=none;spacingLeft=4;fontSize=12;verticalAlign=top;resizable=0;rotatable=0;part=1;rounded=0;" parent="42" vertex="1">
                    <mxGeometry y="40" width="110" height="40" as="geometry"/>
                </mxCell>
                <mxCell id="63" value="Vend" style="swimlane;childLayout=stackLayout;horizontal=1;startSize=20;horizontalStack=0;rounded=1;fontSize=14;fontStyle=0;strokeWidth=2;resizeParent=0;resizeLast=1;shadow=0;dashed=0;align=center;arcSize=50;fillColor=#ffe6cc;strokeColor=#d79b00;swimlaneFillColor=default;" parent="1" vertex="1">
                    <mxGeometry x="1215" y="420" width="100" height="40" as="geometry"/>
                </mxCell>
                <mxCell id="64" value="" style="endArrow=none;html=1;rounded=0;exitX=0.5;exitY=0;exitDx=0;exitDy=0;entryX=0.5;entryY=1;entryDx=0;entryDy=0;" parent="1" source="63" target="32" edge="1">
                    <mxGeometry relative="1" as="geometry">
                        <mxPoint x="1275" y="250" as="sourcePoint"/>
                        <mxPoint x="1260" y="370" as="targetPoint"/>
                        <Array as="points"/>
                    </mxGeometry>
                </mxCell>
                <mxCell id="65" value="0,N" style="resizable=0;html=1;align=right;verticalAlign=bottom;rounded=0;" parent="64" connectable="0" vertex="1">
                    <mxGeometry x="1" relative="1" as="geometry">
                        <mxPoint x="-5" y="20" as="offset"/>
                    </mxGeometry>
                </mxCell>
                <mxCell id="66" value="" style="endArrow=none;html=1;rounded=0;entryX=0.5;entryY=0;entryDx=0;entryDy=0;exitX=0.5;exitY=1;exitDx=0;exitDy=0;" parent="1" source="63" target="15" edge="1">
                    <mxGeometry relative="1" as="geometry">
                        <mxPoint x="1260" y="470" as="sourcePoint"/>
                        <mxPoint x="1270" y="380" as="targetPoint"/>
                        <Array as="points"/>
                    </mxGeometry>
                </mxCell>
                <mxCell id="67" value="1,1" style="resizable=0;html=1;align=right;verticalAlign=bottom;rounded=0;" parent="66" connectable="0" vertex="1">
                    <mxGeometry x="1" relative="1" as="geometry">
                        <mxPoint x="-5" y="-5" as="offset"/>
                    </mxGeometry>
                </mxCell>
                <mxCell id="68" value="Donne" style="swimlane;childLayout=stackLayout;horizontal=1;startSize=20;horizontalStack=0;rounded=1;fontSize=14;fontStyle=0;strokeWidth=2;resizeParent=0;resizeLast=1;shadow=0;dashed=0;align=center;arcSize=50;fillColor=#ffe6cc;strokeColor=#d79b00;swimlaneFillColor=default;" parent="1" vertex="1">
                    <mxGeometry x="885" y="386" width="100" height="40" as="geometry"/>
                </mxCell>
                <mxCell id="69" value="" style="endArrow=none;html=1;rounded=0;exitX=0.5;exitY=0;exitDx=0;exitDy=0;entryX=0.5;entryY=1;entryDx=0;entryDy=0;" parent="1" source="68" target="29" edge="1">
                    <mxGeometry relative="1" as="geometry">
                        <mxPoint x="1125" y="430" as="sourcePoint"/>
                        <mxPoint x="1125" y="380" as="targetPoint"/>
                        <Array as="points"/>
                    </mxGeometry>
                </mxCell>
                <mxCell id="70" value="0,N" style="resizable=0;html=1;align=right;verticalAlign=bottom;rounded=0;" parent="69" connectable="0" vertex="1">
                    <mxGeometry x="1" relative="1" as="geometry">
                        <mxPoint x="-5" y="20" as="offset"/>
                    </mxGeometry>
                </mxCell>
                <mxCell id="71" value="" style="endArrow=none;html=1;rounded=0;exitX=0.5;exitY=1;exitDx=0;exitDy=0;entryX=0.5;entryY=0;entryDx=0;entryDy=0;" parent="1" source="68" target="36" edge="1">
                    <mxGeometry relative="1" as="geometry">
                        <mxPoint x="945" y="360" as="sourcePoint"/>
                        <mxPoint x="945" y="320" as="targetPoint"/>
                        <Array as="points"/>
                    </mxGeometry>
                </mxCell>
                <mxCell id="72" value="1,1" style="resizable=0;html=1;align=right;verticalAlign=bottom;rounded=0;" parent="71" connectable="0" vertex="1">
                    <mxGeometry x="1" relative="1" as="geometry">
                        <mxPoint x="-5" y="-10" as="offset"/>
                    </mxGeometry>
                </mxCell>
                <mxCell id="73" value="Concerne" style="swimlane;childLayout=stackLayout;horizontal=1;startSize=20;horizontalStack=0;rounded=1;fontSize=14;fontStyle=0;strokeWidth=2;resizeParent=0;resizeLast=1;shadow=0;dashed=0;align=center;arcSize=50;fillColor=#ffe6cc;strokeColor=#d79b00;swimlaneFillColor=default;" parent="1" vertex="1">
                    <mxGeometry x="1040" y="526" width="100" height="40" as="geometry"/>
                </mxCell>
                <mxCell id="74" value="" style="endArrow=none;html=1;rounded=0;exitX=0;exitY=0.5;exitDx=0;exitDy=0;entryX=1;entryY=0;entryDx=0;entryDy=0;" parent="1" source="73" target="38" edge="1">
                    <mxGeometry relative="1" as="geometry">
                        <mxPoint x="945" y="436.0000000000001" as="sourcePoint"/>
                        <mxPoint x="945" y="515" as="targetPoint"/>
                        <Array as="points"/>
                    </mxGeometry>
                </mxCell>
                <mxCell id="75" value="1,1" style="resizable=0;html=1;align=right;verticalAlign=bottom;rounded=0;" parent="74" connectable="0" vertex="1">
                    <mxGeometry x="1" relative="1" as="geometry">
                        <mxPoint x="20" y="21" as="offset"/>
                    </mxGeometry>
                </mxCell>
                <mxCell id="76" value="" style="endArrow=none;html=1;rounded=0;exitX=1;exitY=0.5;exitDx=0;exitDy=0;entryX=0.021;entryY=0.107;entryDx=0;entryDy=0;entryPerimeter=0;" parent="1" source="73" target="17" edge="1">
                    <mxGeometry relative="1" as="geometry">
                        <mxPoint x="1050" y="556" as="sourcePoint"/>
                        <mxPoint x="990" y="555" as="targetPoint"/>
                        <Array as="points"/>
                    </mxGeometry>
                </mxCell>
                <mxCell id="77" value="0,N" style="resizable=0;html=1;align=right;verticalAlign=bottom;rounded=0;" parent="76" connectable="0" vertex="1">
                    <mxGeometry x="1" relative="1" as="geometry">
                        <mxPoint x="-12" y="20" as="offset"/>
                    </mxGeometry>
                </mxCell>
                <mxCell id="78" value="Panier" style="swimlane;childLayout=stackLayout;horizontal=1;startSize=20;horizontalStack=0;rounded=1;fontSize=14;fontStyle=0;strokeWidth=2;resizeParent=0;resizeLast=1;shadow=0;dashed=0;align=center;arcSize=50;fillColor=#ffe6cc;strokeColor=#d79b00;swimlaneFillColor=default;" parent="1" vertex="1">
                    <mxGeometry x="1040" y="346" width="100" height="50" as="geometry"/>
                </mxCell>
                <mxCell id="83" value="Quantité" style="text;strokeColor=none;fillColor=none;spacingLeft=4;spacingRight=4;overflow=hidden;rotatable=0;points=[[0,0.5],[1,0.5]];portConstraint=eastwest;fontSize=12;rounded=0;" parent="78" vertex="1">
                    <mxGeometry y="20" width="100" height="30" as="geometry"/>
                </mxCell>
                <mxCell id="79" value="" style="endArrow=none;html=1;rounded=0;exitX=0.5;exitY=0;exitDx=0;exitDy=0;entryX=1;entryY=0.5;entryDx=0;entryDy=0;" parent="1" source="78" target="29" edge="1">
                    <mxGeometry relative="1" as="geometry">
                        <mxPoint x="945" y="396" as="sourcePoint"/>
                        <mxPoint x="945" y="320" as="targetPoint"/>
                        <Array as="points">
                            <mxPoint x="1090" y="273"/>
                        </Array>
                    </mxGeometry>
                </mxCell>
                <mxCell id="80" value="0,N" style="resizable=0;html=1;align=right;verticalAlign=bottom;rounded=0;" parent="79" connectable="0" vertex="1">
                    <mxGeometry x="1" relative="1" as="geometry">
                        <mxPoint x="20" y="-7" as="offset"/>
                    </mxGeometry>
                </mxCell>
                <mxCell id="81" value="" style="endArrow=none;html=1;rounded=0;exitX=0.5;exitY=1;exitDx=0;exitDy=0;entryX=0.019;entryY=0.179;entryDx=0;entryDy=0;entryPerimeter=0;" parent="1" source="78" target="15" edge="1">
                    <mxGeometry relative="1" as="geometry">
                        <mxPoint x="1100" y="356" as="sourcePoint"/>
                        <mxPoint x="1000" y="282.5" as="targetPoint"/>
                        <Array as="points">
                            <mxPoint x="1090" y="518"/>
                        </Array>
                    </mxGeometry>
                </mxCell>
                <mxCell id="82" value="0,N" style="resizable=0;html=1;align=right;verticalAlign=bottom;rounded=0;" parent="81" connectable="0" vertex="1">
                    <mxGeometry x="1" relative="1" as="geometry">
                        <mxPoint x="-10" y="-7" as="offset"/>
                    </mxGeometry>
                </mxCell>
                <mxCell id="84" value="Posséde" style="swimlane;childLayout=stackLayout;horizontal=1;startSize=20;horizontalStack=0;rounded=1;fontSize=14;fontStyle=0;strokeWidth=2;resizeParent=0;resizeLast=1;shadow=0;dashed=0;align=center;arcSize=50;fillColor=#ffe6cc;strokeColor=#d79b00;swimlaneFillColor=default;" parent="1" vertex="1">
                    <mxGeometry x="1419" y="530" width="100" height="40" as="geometry"/>
                </mxCell>
                <mxCell id="85" value="" style="endArrow=none;html=1;rounded=0;exitX=0;exitY=0.5;exitDx=0;exitDy=0;entryX=0.992;entryY=0.183;entryDx=0;entryDy=0;entryPerimeter=0;" parent="1" source="84" target="17" edge="1">
                    <mxGeometry relative="1" as="geometry">
                        <mxPoint x="1150" y="556" as="sourcePoint"/>
                        <mxPoint x="1231.8899999999999" y="556.4200000000001" as="targetPoint"/>
                        <Array as="points"/>
                    </mxGeometry>
                </mxCell>
                <mxCell id="86" value="0,N" style="resizable=0;html=1;align=right;verticalAlign=bottom;rounded=0;" parent="85" connectable="0" vertex="1">
                    <mxGeometry x="1" relative="1" as="geometry">
                        <mxPoint x="31" y="-6" as="offset"/>
                    </mxGeometry>
                </mxCell>
                <mxCell id="87" value="" style="endArrow=none;html=1;rounded=0;exitX=0.5;exitY=1;exitDx=0;exitDy=0;entryX=0.5;entryY=0;entryDx=0;entryDy=0;" parent="1" source="84" target="42" edge="1">
                    <mxGeometry relative="1" as="geometry">
                        <mxPoint x="1275" y="650" as="sourcePoint"/>
                        <mxPoint x="1275" y="610.0000000000002" as="targetPoint"/>
                        <Array as="points"/>
                    </mxGeometry>
                </mxCell>
                <mxCell id="88" value="1,1" style="resizable=0;html=1;align=right;verticalAlign=bottom;rounded=0;" parent="87" connectable="0" vertex="1">
                    <mxGeometry x="1" relative="1" as="geometry">
                        <mxPoint x="-12" y="-10" as="offset"/>
                    </mxGeometry>
                </mxCell>
                <mxCell id="89" value="Passe" style="swimlane;childLayout=stackLayout;horizontal=1;startSize=20;horizontalStack=0;rounded=1;fontSize=14;fontStyle=0;strokeWidth=2;resizeParent=0;resizeLast=1;shadow=0;dashed=0;align=center;arcSize=50;fillColor=#ffe6cc;strokeColor=#d79b00;swimlaneFillColor=default;" parent="1" vertex="1">
                    <mxGeometry x="690" y="250" width="100" height="40" as="geometry"/>
                </mxCell>
                <mxCell id="90" value="" style="endArrow=none;html=1;rounded=0;exitX=1;exitY=0.5;exitDx=0;exitDy=0;entryX=0;entryY=0.5;entryDx=0;entryDy=0;" parent="1" source="89" target="29" edge="1">
                    <mxGeometry relative="1" as="geometry">
                        <mxPoint x="945" y="130" as="sourcePoint"/>
                        <mxPoint x="945" y="230" as="targetPoint"/>
                        <Array as="points"/>
                    </mxGeometry>
                </mxCell>
                <mxCell id="91" value="0,N" style="resizable=0;html=1;align=right;verticalAlign=bottom;rounded=0;" parent="90" connectable="0" vertex="1">
                    <mxGeometry x="1" relative="1" as="geometry">
                        <mxPoint x="-10" y="-9" as="offset"/>
                    </mxGeometry>
                </mxCell>
                <mxCell id="92" value="" style="endArrow=none;html=1;rounded=0;exitX=0;exitY=0.5;exitDx=0;exitDy=0;" parent="1" source="89" edge="1">
                    <mxGeometry relative="1" as="geometry">
                        <mxPoint x="800" y="275" as="sourcePoint"/>
                        <mxPoint x="620" y="270" as="targetPoint"/>
                        <Array as="points"/>
                    </mxGeometry>
                </mxCell>
                <mxCell id="93" value="1,1" style="resizable=0;html=1;align=right;verticalAlign=bottom;rounded=0;" parent="92" connectable="0" vertex="1">
                    <mxGeometry x="1" relative="1" as="geometry">
                        <mxPoint x="30" y="-10" as="offset"/>
                    </mxGeometry>
                </mxCell>
                <mxCell id="95" value="Concerne" style="swimlane;childLayout=stackLayout;horizontal=1;startSize=20;horizontalStack=0;rounded=1;fontSize=14;fontStyle=0;strokeWidth=2;resizeParent=0;resizeLast=1;shadow=0;dashed=0;align=center;arcSize=50;fillColor=#ffe6cc;strokeColor=#d79b00;swimlaneFillColor=default;" parent="1" vertex="1">
                    <mxGeometry x="330" y="250" width="100" height="40" as="geometry"/>
                </mxCell>
                <mxCell id="96" value="" style="endArrow=none;html=1;rounded=0;exitX=1;exitY=0.5;exitDx=0;exitDy=0;entryX=0;entryY=0.25;entryDx=0;entryDy=0;" parent="1" source="95" target="14" edge="1">
                    <mxGeometry relative="1" as="geometry">
                        <mxPoint x="700" y="280" as="sourcePoint"/>
                        <mxPoint x="630" y="280" as="targetPoint"/>
                        <Array as="points"/>
                    </mxGeometry>
                </mxCell>
                <mxCell id="97" value="1,1" style="resizable=0;html=1;align=right;verticalAlign=bottom;rounded=0;" parent="96" connectable="0" vertex="1">
                    <mxGeometry x="1" relative="1" as="geometry">
                        <mxPoint x="-10" y="-7" as="offset"/>
                    </mxGeometry>
                </mxCell>
                <mxCell id="98" value="" style="endArrow=none;html=1;rounded=0;exitX=0;exitY=0.5;exitDx=0;exitDy=0;entryX=1;entryY=0;entryDx=0;entryDy=0;" parent="1" source="95" target="41" edge="1">
                    <mxGeometry relative="1" as="geometry">
                        <mxPoint x="440" y="275" as="sourcePoint"/>
                        <mxPoint x="520" y="277.5" as="targetPoint"/>
                        <Array as="points"/>
                    </mxGeometry>
                </mxCell>
                <mxCell id="99" value="0,N" style="resizable=0;html=1;align=right;verticalAlign=bottom;rounded=0;" parent="98" connectable="0" vertex="1">
                    <mxGeometry x="1" relative="1" as="geometry">
                        <mxPoint x="30" y="-5" as="offset"/>
                    </mxGeometry>
                </mxCell>
                <mxCell id="100" value="Habite" style="swimlane;childLayout=stackLayout;horizontal=1;startSize=20;horizontalStack=0;rounded=1;fontSize=14;fontStyle=0;strokeWidth=2;resizeParent=0;resizeLast=1;shadow=0;dashed=0;align=center;arcSize=50;fillColor=#ffe6cc;strokeColor=#d79b00;swimlaneFillColor=default;" parent="1" vertex="1">
                    <mxGeometry x="885" y="120" width="100" height="40" as="geometry"/>
                </mxCell>
                <mxCell id="101" value="" style="endArrow=none;html=1;rounded=0;entryX=0.5;entryY=0;entryDx=0;entryDy=0;exitX=0.5;exitY=1;exitDx=0;exitDy=0;" parent="1" source="100" target="27" edge="1">
                    <mxGeometry relative="1" as="geometry">
                        <mxPoint x="750" y="160" as="sourcePoint"/>
                        <mxPoint x="891.54" y="279.5" as="targetPoint"/>
                        <Array as="points"/>
                    </mxGeometry>
                </mxCell>
                <mxCell id="102" value="0,N" style="resizable=0;html=1;align=right;verticalAlign=bottom;rounded=0;" parent="101" connectable="0" vertex="1">
                    <mxGeometry x="1" relative="1" as="geometry">
                        <mxPoint x="-10" y="-10" as="offset"/>
                    </mxGeometry>
                </mxCell>
                <mxCell id="103" value="" style="endArrow=none;html=1;rounded=0;exitX=0.5;exitY=0;exitDx=0;exitDy=0;entryX=0.5;entryY=1;entryDx=0;entryDy=0;" parent="1" source="100" target="11" edge="1">
                    <mxGeometry relative="1" as="geometry">
                        <mxPoint x="750" y="406" as="sourcePoint"/>
                        <mxPoint x="890" y="320" as="targetPoint"/>
                        <Array as="points"/>
                    </mxGeometry>
                </mxCell>
                <mxCell id="104" value="1,1" style="resizable=0;html=1;align=right;verticalAlign=bottom;rounded=0;" parent="103" connectable="0" vertex="1">
                    <mxGeometry x="1" relative="1" as="geometry">
                        <mxPoint x="30" y="30" as="offset"/>
                    </mxGeometry>
                </mxCell>
                <mxCell id="110" value="LigneCommande" style="swimlane;childLayout=stackLayout;horizontal=1;startSize=20;horizontalStack=0;rounded=1;fontSize=14;fontStyle=0;strokeWidth=2;resizeParent=0;resizeLast=1;shadow=0;dashed=0;align=center;arcSize=50;fillColor=#ffe6cc;strokeColor=#d79b00;swimlaneFillColor=default;" parent="1" vertex="1">
                    <mxGeometry x="870" y="680" width="150" height="50" as="geometry"/>
                </mxCell>
                <mxCell id="115" value="Quantité" style="text;strokeColor=none;fillColor=none;spacingLeft=4;spacingRight=4;overflow=hidden;rotatable=0;points=[[0,0.5],[1,0.5]];portConstraint=eastwest;fontSize=12;rounded=0;" parent="110" vertex="1">
                    <mxGeometry y="20" width="150" height="30" as="geometry"/>
                </mxCell>
                <mxCell id="111" value="" style="endArrow=none;html=1;rounded=0;exitX=1;exitY=0.5;exitDx=0;exitDy=0;entryX=0.5;entryY=1;entryDx=0;entryDy=0;" parent="1" source="110" target="17" edge="1">
                    <mxGeometry relative="1" as="geometry">
                        <mxPoint x="1150" y="556" as="sourcePoint"/>
                        <mxPoint x="1231.8899999999999" y="556.4200000000001" as="targetPoint"/>
                        <Array as="points">
                            <mxPoint x="1265" y="705"/>
                        </Array>
                    </mxGeometry>
                </mxCell>
                <mxCell id="112" value="0,N" style="resizable=0;html=1;align=right;verticalAlign=bottom;rounded=0;" parent="111" connectable="0" vertex="1">
                    <mxGeometry x="1" relative="1" as="geometry">
                        <mxPoint x="-12" y="20" as="offset"/>
                    </mxGeometry>
                </mxCell>
                <mxCell id="113" value="" style="endArrow=none;html=1;rounded=0;entryX=0.5;entryY=1;entryDx=0;entryDy=0;exitX=0;exitY=0.5;exitDx=0;exitDy=0;" parent="1" source="110" target="14" edge="1">
                    <mxGeometry relative="1" as="geometry">
                        <mxPoint x="870" y="740" as="sourcePoint"/>
                        <mxPoint x="580" y="570" as="targetPoint"/>
                        <Array as="points">
                            <mxPoint x="565" y="705"/>
                        </Array>
                    </mxGeometry>
                </mxCell>
                <mxCell id="114" value="0,N" style="resizable=0;html=1;align=right;verticalAlign=bottom;rounded=0;" parent="113" connectable="0" vertex="1">
                    <mxGeometry x="1" relative="1" as="geometry">
                        <mxPoint x="-12" y="20" as="offset"/>
                    </mxGeometry>
                </mxCell>
                <mxCell id="126" value="" style="group;rounded=0;" parent="1" vertex="1" connectable="0">
                    <mxGeometry x="1220" y="107.5" width="80" height="45" as="geometry"/>
                </mxCell>
                <mxCell id="124" value="" style="triangle;whiteSpace=wrap;html=1;rotation=-90;fillColor=#ffe6cc;strokeColor=#d79b00;rounded=0;" parent="126" vertex="1">
                    <mxGeometry x="17.5" y="-17.5" width="45" height="80" as="geometry"/>
                </mxCell>
                <mxCell id="125" value="&lt;b&gt;XT&lt;/b&gt;" style="text;html=1;strokeColor=none;fillColor=none;align=center;verticalAlign=middle;whiteSpace=wrap;rounded=0;fontSize=20;" parent="126" vertex="1">
                    <mxGeometry x="10" y="15" width="60" height="30" as="geometry"/>
                </mxCell>
                <mxCell id="132" style="edgeStyle=none;html=1;exitX=1;exitY=0.5;exitDx=0;exitDy=0;entryX=0.5;entryY=1;entryDx=0;entryDy=0;fontSize=20;rounded=0;" parent="1" source="124" target="3" edge="1">
                    <mxGeometry relative="1" as="geometry"/>
                </mxCell>
            </root>
        </mxGraphModel>
    </diagram>
</mxfile>